<?xml version="1.0" standalone="no"?>
<!DOCTYPE svg PUBLIC "-//W3C//DTD SVG 20010904//EN"
 "http://www.w3.org/TR/2001/REC-SVG-20010904/DTD/svg10.dtd">
<svg version="1.0" xmlns="http://www.w3.org/2000/svg"
 width="600.000000pt" height="500.000000pt" viewBox="0 0 600.000000 500.000000"
 preserveAspectRatio="xMidYMid meet">
<metadata>
Created by potrace 1.15, written by Peter Selinger 2001-2017
</metadata>
<g transform="translate(0.000000,500.000000) scale(0.100000,-0.100000)"
fill="#000000" stroke="none">
<path d="M2058 3177 c-515 -369 -937 -674 -937 -677 0 -9 1867 -1345 1879
-1345 12 0 1879 1336 1879 1345 0 6 -1861 1343 -1875 1347 -5 2 -431 -300
-946 -670z m1815 -45 c477 -343 867 -627 867 -632 0 -5 -391 -290 -870 -634
l-870 -625 -870 626 c-479 344 -869 630 -868 635 4 12 1730 1257 1739 1254 3
0 395 -281 872 -624z"/>
<path d="M3213 3095 c-34 -24 -64 -118 -70 -222 -5 -82 -8 -93 -24 -93 -23 0
-24 19 -4 123 19 102 19 143 -1 151 -35 13 -51 -10 -58 -86 -12 -136 -51 -242
-85 -236 -29 6 -32 102 -6 260 6 31 3 37 -15 43 -33 11 -48 -11 -75 -113 -40
-150 -80 -210 -111 -167 -20 27 -17 60 11 171 28 105 27 124 -4 124 -63 0
-106 -229 -61 -327 18 -40 22 -43 57 -43 48 0 81 22 100 69 9 20 17 32 19 26
1 -5 5 -22 8 -37 15 -67 86 -80 141 -25 27 27 34 30 45 19 7 -8 22 -11 36 -8
17 5 24 2 24 -9 0 -32 37 -15 55 25 10 22 24 45 32 51 10 9 13 4 13 -28 0 -21
5 -44 12 -51 15 -15 53 -15 80 -1 14 8 23 8 31 0 15 -15 67 -13 97 4 22 12 27
11 42 -2 12 -11 27 -13 50 -9 38 8 45 8 113 0 45 -5 55 -2 93 25 45 34 50 42
28 60 -11 9 -22 6 -51 -14 -38 -25 -75 -33 -75 -16 0 5 9 13 21 16 23 7 59 61
59 87 0 46 -81 66 -115 28 -10 -11 -25 -43 -35 -72 -10 -32 -24 -54 -34 -56
-28 -6 -19 33 31 127 36 71 48 103 51 150 4 51 2 62 -13 68 -62 23 -137 -110
-153 -274 -5 -46 -12 -69 -24 -77 -28 -17 -32 0 -14 68 21 85 21 88 -11 84
-24 -3 -30 -11 -44 -57 -14 -49 -47 -91 -70 -91 -15 0 -10 35 12 84 32 73 8
98 -52 56 l-28 -21 25 57 c31 70 41 138 24 159 -16 19 -50 19 -77 0z"/>
<path d="M2163 3054 c-30 -15 -63 -65 -63 -97 0 -32 23 -28 59 12 35 38 42 41
90 41 69 0 108 -21 120 -65 23 -85 -46 -209 -120 -217 -23 -3 -24 -1 -21 70 1
40 10 98 21 128 10 29 16 56 13 59 -3 3 -16 5 -29 5 -39 0 -65 -73 -71 -196
-5 -115 -6 -114 86 -114 105 0 181 96 182 228 0 79 -19 115 -75 142 -51 25
-146 26 -192 4z"/>
<path d="M2487 2899 c-41 -24 -61 -114 -36 -162 16 -30 28 -37 66 -37 46 0 83
47 83 108 l0 46 28 -27 c33 -31 42 -34 42 -9 -1 20 -25 51 -60 75 -27 19 -95
22 -123 6z"/>
<path d="M2306 2405 c-45 -16 -56 -29 -56 -67 0 -18 6 -29 20 -33 22 -7 50 10
50 30 0 14 42 35 70 35 17 0 15 -11 -25 -127 -25 -71 -45 -145 -45 -165 0 -34
3 -38 24 -38 14 0 27 4 30 9 3 4 23 77 45 162 l40 154 83 0 c76 0 83 2 83 20
0 27 -30 33 -165 34 -74 0 -129 -5 -154 -14z"/>
<path d="M2569 2228 c-7 -24 -12 -72 -13 -108 -1 -59 1 -65 21 -68 17 -3 24 5
33 35 7 21 17 46 22 57 9 17 11 17 22 -5 7 -14 22 -25 38 -27 18 -2 28 -11 32
-27 8 -31 46 -42 87 -25 23 10 33 10 42 1 14 -14 50 -14 65 1 9 9 15 9 24 0
15 -15 53 -15 80 -1 14 8 23 8 31 0 23 -23 47 -11 71 37 24 46 25 46 26 16 0
-16 6 -39 14 -49 12 -17 18 -18 51 -8 28 9 42 9 55 0 14 -8 28 -8 56 1 25 7
42 8 48 2 22 -22 46 -9 70 38 24 46 25 46 26 16 0 -16 6 -39 14 -49 12 -17 18
-18 52 -7 27 8 41 8 51 0 7 -5 26 -8 42 -6 l30 4 -35 -39 c-42 -46 -67 -101
-59 -128 15 -46 90 -48 120 -2 9 13 19 49 22 78 5 47 10 57 49 89 43 36 52 58
35 85 -7 11 -15 6 -40 -20 -35 -39 -39 -29 -20 50 12 55 6 73 -31 89 -53 24
-97 -9 -129 -94 -11 -28 -26 -50 -36 -52 -15 -3 -16 4 -10 71 6 63 5 75 -9 80
-25 10 -43 -2 -58 -36 l-13 -32 -5 34 c-10 69 -46 47 -61 -38 -9 -47 -17 -66
-35 -78 -14 -9 -27 -13 -31 -10 -3 3 2 38 12 77 12 49 14 75 7 82 -19 19 -49
-9 -62 -59 -16 -59 -36 -93 -55 -93 -12 0 -14 15 -12 78 2 71 0 77 -18 77 -11
0 -29 -14 -41 -33 l-23 -33 -3 32 c-2 18 -7 34 -13 36 -22 6 -36 -16 -45 -72
-9 -58 -31 -95 -57 -95 -17 0 -17 9 4 86 12 46 14 67 6 75 -20 20 -50 -7 -62
-58 -15 -59 -36 -93 -57 -93 -13 0 -15 7 -10 33 19 93 19 107 2 107 -9 0 -24
5 -34 11 -26 16 -78 -13 -104 -57 -29 -49 -54 -42 -50 14 4 53 -17 65 -54 32
l-24 -23 0 21 c0 15 -6 22 -20 22 -14 0 -22 -11 -31 -42z"/>
</g>
</svg>
